<?xml version="1.0" encoding="UTF-8" standalone="no"?>
<!-- Created with Inkscape (http://www.inkscape.org/) -->

<svg
   xmlns:dc="http://purl.org/dc/elements/1.1/"
   xmlns:cc="http://creativecommons.org/ns#"
   xmlns:rdf="http://www.w3.org/1999/02/22-rdf-syntax-ns#"
   xmlns:svg="http://www.w3.org/2000/svg"
   xmlns="http://www.w3.org/2000/svg"
   xmlns:sodipodi="http://sodipodi.sourceforge.net/DTD/sodipodi-0.dtd"
   xmlns:inkscape="http://www.inkscape.org/namespaces/inkscape"
   width="128"
   height="128"
   viewBox="0 0 33.866666 33.866666"
   version="1.1"
   id="svg8"
   sodipodi:docname="Key.svg"
   inkscape:version="0.92.4 (5da689c313, 2019-01-14)"
   inkscape:export-filename="C:\Users\PHD\Desktop\New folder\Key_16.png"
   inkscape:export-xdpi="12.000001"
   inkscape:export-ydpi="12.000001">
  <defs
     id="defs2" />
  <sodipodi:namedview
     id="base"
     pagecolor="#ffffff"
     bordercolor="#666666"
     borderopacity="1.0"
     inkscape:pageopacity="0.0"
     inkscape:pageshadow="2"
     inkscape:zoom="1.979899"
     inkscape:cx="93.018747"
     inkscape:cy="60.746612"
     inkscape:document-units="mm"
     inkscape:current-layer="layer1"
     showgrid="false"
     inkscape:window-width="1600"
     inkscape:window-height="821"
     inkscape:window-x="-9"
     inkscape:window-y="-9"
     inkscape:window-maximized="1"
     fit-margin-top="5"
     fit-margin-left="5"
     fit-margin-right="5"
     fit-margin-bottom="5"
     units="px" />
  <metadata
     id="metadata5">
    <rdf:RDF>
      <cc:Work
         rdf:about="">
        <dc:format>image/svg+xml</dc:format>
        <dc:type
           rdf:resource="http://purl.org/dc/dcmitype/StillImage" />
        <dc:title></dc:title>
      </cc:Work>
    </rdf:RDF>
  </metadata>
  <g
     inkscape:label="Layer 1"
     inkscape:groupmode="layer"
     id="layer1"
     transform="translate(-62.786217,-198.64609)">
    <path
       style="opacity:1;fill:#00539c;fill-opacity:1;stroke-width:0.01419872;stroke-miterlimit:4;stroke-dasharray:none"
       d="m 67.660747,215.07333 c -3.165617,3.47372 -5.204521,10.58855 -1.936127,13.96575 3.305941,3.416 10.57794,1.60411 14.182738,-1.49487 3.464661,-2.97849 0.849435,-10.73641 3.465869,-13.26145 l 5.519782,-6.01944 2.515279,2.60631 1.651241,-1.5936 -1.275823,-1.32202 1.651464,-1.59376 0.67981,0.7044 1.651259,-1.59358 -1.919218,-1.98869 0.889772,-0.85871 -2.274525,-2.35688 -7.959381,8.37383 c 0,0 -1.139025,1.11065 -3.395809,3.27718 -2.256801,2.16657 -10.345315,-0.24733 -13.446331,3.15553 z m 0.767738,8.31169 c 0.9069,-0.87511 2.351493,-0.84936 3.226608,0.0577 0.875026,0.90683 0.849345,2.35127 -0.05736,3.22643 -0.906796,0.87519 -2.351388,0.84962 -3.226613,-0.0573 -0.875279,-0.90687 -0.849596,-2.35161 0.05736,-3.22679 z"
       id="path815-1"
       inkscape:connector-curvature="0"
       sodipodi:nodetypes="aaasccccccccccczacccccc" />
  </g>
</svg>
